<svg xmlns="http://www.w3.org/2000/svg" width="300" height="41" viewBox="0 0 300 41">
  <g fill="none">
    <path fill="#D5522B" d="M128.215152,5.25 C121.467677,0.225757576 110.318687,-2.45252525 102.564141,3.06868687 C94.0308081,9.14242424 89.5388889,21.0449495 95.1262626,26.9232323 C100.713636,32.8015152 102.652525,29.680303 108.176263,35.0621212 C113.7,40.4444444 122.059596,43.759596 130.768182,33.0979798 C139.477273,22.4358586 134.237374,9.73333333 128.215152,5.25"/>
    <path fill="#FFF" d="M18.6651515 17.8449495C19.0166667 18.2070707 19.1929293 18.6570707 19.1929293 19.1949495L19.1929293 25.7737374C19.1929293 26.4984848 18.8717172 27.0570707 18.2308081 27.4494949 16.2030303 28.7116162 13.9792929 29.3424242 11.5585859 29.3424242 9.51060606 29.3424242 7.61717172 28.8414141 5.87929293 27.8378788 4.14141414 26.8343434 2.76515152 25.4787879 1.7520202 23.7722222.737878788 22.0651515.231313131 20.1984848.231313131 18.1707071.231313131 16.1429293.737878788 14.2757576 1.7520202 12.5686869 2.76565657 10.8621212 4.14141414 9.50707071 5.87929293 8.50353535 7.61717172 7.50050505 9.51010101 6.99848485 11.5585859 6.99848485 13.6070707 6.99848485 15.3858586 7.41262626 16.8964646 8.23989899 17.2070707 8.40606061 17.439899 8.62323232 17.5949495 8.89191919 17.75 9.16111111 17.8277778 9.45050505 17.8277778 9.76111111 17.8277778 10.2782828 17.6570707 10.7282828 17.3156566 11.1111111 16.9742424 11.4944444 16.5555556 11.6853535 16.0590909 11.6853535 15.7484848 11.6853535 15.4070707 11.6030303 15.0348485 11.4373737 13.9176768 10.9616162 12.7585859 10.7232323 11.5590909 10.7232323 10.2348485 10.7232323 9.01414141 11.060101 7.89747475 11.7318182 6.78030303 12.4045455 5.8959596 13.309596 5.24393939 14.4474747 4.59242424 15.5853535 4.26616162 16.8267677 4.26616162 18.1717172 4.26616162 19.5166667 4.59242424 20.7580808 5.24393939 21.8954545 5.8959596 23.0338384 6.78030303 23.9388889 7.89747475 24.6111111 9.01464646 25.2833333 10.2348485 25.619697 11.5590909 25.619697 12.1378788 25.619697 12.7585859 25.5676768 13.4212121 25.4641414 14.0833333 25.3611111 14.6626263 25.2262626 15.1590909 25.0606061L15.1590909 21.0262626 12.2419192 21.0262626C11.7035354 21.0262626 11.2535354 20.8505051 10.8919192 20.4989899 10.529798 20.1474747 10.3484848 19.7025253 10.3484848 19.1641414 10.3484848 18.6267677 10.5292929 18.1818182 10.8919192 17.8292929 11.2535354 17.4782828 11.7035354 17.3020202 12.2419192 17.3020202L17.3313131 17.3020202C17.8686869 17.3020202 18.3131313 17.4828283 18.6651515 17.8449495zM25.4772727 28.4893939C25.1151515 28.8515152 24.6651515 29.0323232 24.1272727 29.0323232 23.610101 29.0323232 23.1752525 28.8515152 22.8237374 28.4893939 22.4717172 28.1272727 22.2959596 27.6777778 22.2959596 27.1393939L22.2959596 7.96060606C22.2959596 7.42272727 22.4767677 6.97272727 22.8388889 6.61060606 23.2005051 6.2489899 23.6505051 6.06717172 24.1888889 6.06717172 24.7055556 6.06717172 25.139899 6.24848485 25.4924242 6.61060606 25.8439394 6.97272727 26.019698 7.42272727 26.019698 7.96060606L26.019698 27.1393939C26.020202 27.6777778 25.8388889 28.1272727 25.4772727 28.4893939zM44.2984848 25.2C43.5535354 26.5146465 42.5343434 27.5328283 41.2414141 28.2570707 39.9479798 28.9818182 38.5262626 29.3429293 36.9742424 29.3429293 35.4015152 29.3429293 33.9742424 28.9813131 32.6914141 28.2570707 31.4085859 27.5328283 30.3949495 26.5146465 29.6505051 25.2 28.9055556 23.8863636 28.5333333 22.4020202 28.5333333 20.7469697 28.5333333 19.0919192 28.9060606 17.6075758 29.6505051 16.2939394 30.3949495 14.980303 31.4085859 13.9560606 32.6914141 13.2217172 33.9742424 12.4873737 35.4015152 12.119697 36.9742424 12.119697 38.5257576 12.119697 39.9479798 12.4873737 41.2414141 13.2217172 42.5343434 13.9560606 43.5535354 14.979798 44.2984848 16.2939394 45.0434343 17.6080808 45.4156566 19.0919192 45.4156566 20.7469697 45.4156566 22.4020202 45.0434343 23.8863636 44.2984848 25.2zM41.0555556 18.0308081C40.6313131 17.2348485 40.0626263 16.6186869 39.3489899 16.1848485 38.6348485 15.7505051 37.8439394 15.5328283 36.9747475 15.5328283 36.1055556 15.5328283 35.3141414 15.7505051 34.6005051 16.1848485 33.8863636 16.6186869 33.3171717 17.2348485 32.8934343 18.0308081 32.4691919 18.8277778 32.2575758 19.7328283 32.2575758 20.7464646 32.2575758 21.7606061 32.4691919 22.660101 32.8934343 23.4464646 33.3171717 24.2333333 33.8863636 24.8434343 34.6005051 25.2777778 35.3141414 25.7116162 36.1055556 25.9292929 36.9747475 25.9292929 37.8434343 25.9292929 38.6348485 25.7116162 39.3489899 25.2777778 40.0626263 24.8434343 40.6318182 24.2333333 41.0555556 23.4464646 41.4792929 22.660101 41.6919192 21.7606061 41.6919192 20.7464646 41.6919192 19.7328283 41.4792929 18.8277778 41.0555556 18.0308081z"/>
    <path fill="#FFF" d="M12.8994949 7.16060606C14.0575758 7.89494949 14.9732323 8.91414141 15.6459596 10.2171717 16.3181818 11.5207071 16.6545455 13.0005051 16.6545455 14.6550505 16.6545455 16.3106061 16.3232323 17.7949495 15.6616162 19.1080808 14.9989899 20.4227273 14.0944444 21.4464646 12.9459596 22.1808081 11.7979798 22.9151515 10.530303 23.2823232 9.14444444 23.2823232 8.15151515 23.2823232 7.21515152 23.0808081 6.33585859 22.6772727 5.45606061 22.2737374 4.72676768 21.7828283 4.1479798 21.2030303L4.1479798 21.3893939C4.1479798 21.9272727 3.97171717 22.3777778 3.62070707 22.7393939 3.26868687 23.1015152 2.82373737 23.2823232 2.28585859 23.2823232 1.7479798 23.2823232 1.3030303 23.1060606.951515152 22.7550505.599494949 22.4035354.424242424 21.9479798.424242424 21.3893939L.424242424 1.9C.424242424 1.36212121.6.912121212.951515152.55 1.3030303.188383838 1.7479798.00656565657 2.28585859.00656565657 2.82373737.00656565657 3.26818182.187878788 3.62070707.55 3.97222222.912121212 4.1479798 1.36212121 4.1479798 1.9L4.1479798 8.38585859C4.64444444 7.76515152 5.33737374 7.22171717 6.22727273 6.75656566 7.11666667 6.29090909 8.04747475 6.05808081 9.02020202 6.05808081 10.4474747 6.05858586 11.740404 6.42626263 12.8994949 7.16060606zM11.8131313 18.3792929C12.6611111 17.3858586 13.0858586 16.1444444 13.0858586 14.6550505 13.0858586 13.1656566 12.6666667 11.929798 11.8287879 10.9464646 10.9909091 9.96414141 9.89949495 9.47222222 8.55505051 9.47222222 7.20959596 9.47222222 6.11363636 9.96414141 5.26515152 10.9464646 4.41666667 11.9292929 3.99292929 13.1656566 3.99292929 14.6550505 3.99292929 16.1444444 4.41666667 17.3858586 5.26515152 18.3792929 6.11313131 19.3722222 7.20959596 19.8686869 8.55505051 19.8686869 9.87828283 19.8686869 10.9641414 19.3717172 11.8131313 18.3792929zM34.0323232 6.58585859C34.3843434 6.93787879 34.560101 7.39292929 34.560101 7.95151515L34.560101 21.0787879C34.560101 21.6166667 34.3843434 22.0666667 34.0323232 22.4287879 33.6813131 22.7909091 33.2363636 22.9717172 32.6984848 22.9717172 32.160101 22.9717172 31.7207071 22.7959596 31.379798 22.4439394 31.0383838 22.0929293 30.8570707 21.6479798 30.8363636 21.109596 30.319697 21.709596 29.6212121 22.2217172 28.7414141 22.6454545 27.8626263 23.069697 26.9363636 23.2818182 25.9646465 23.2818182 24.5373737 23.2818182 23.2429293 22.9146465 22.0848485 22.180303 20.9257576 21.4459596 20.0106061 20.4262626 19.3383838 19.1232323 18.6656566 17.819697 18.3292929 16.340404 18.3292929 14.6853535 18.3292929 13.030303 18.6606061 11.5459596 19.3222222 10.2323232 19.9838384 8.91868687 20.889899 7.89444444 22.0378788 7.16010101 23.1858586 6.42575758 24.4525253 6.05808081 25.8393939 6.05808081 26.8328283 6.05808081 27.7631313 6.23939394 28.6318182 6.6010101 29.5010101 6.96313131 30.2348485 7.42323232 30.8353535 7.98181818L30.8353535 7.95050505C30.8353535 7.41313131 31.0111111 6.96262626 31.3631313 6.60050505 31.7141414 6.23888889 32.1590909 6.05757576 32.6979798 6.05757576 33.2363636 6.05858586 33.6808081 6.23484848 34.0323232 6.58585859zM29.7186869 18.3944444C30.5671717 17.4121212 30.9914141 16.1752525 30.9914141 14.6858586 30.9914141 13.1964646 30.5671717 11.9550505 29.7186869 10.9616162 28.870202 9.96868687 27.7742424 9.47222222 26.429798 9.47222222 25.1050505 9.47222222 24.0191919 9.96868687 23.1707071 10.9616162 22.3222222 11.9550505 21.8979798 13.1964646 21.8979798 14.6858586 21.8979798 16.1752525 22.3171717 17.4116162 23.1555556 18.3944444 23.9929293 19.3772727 25.0838384 19.8686869 26.4292929 19.8686869 27.7742424 19.8686869 28.870202 19.3772727 29.7186869 18.3944444z" transform="translate(47.475 6.06)"/>
    <path fill="#FFF" d="M88.8777778 28.4893939C88.5156566 28.8515152 88.0656566 29.0323232 87.5277778 29.0323232 87.0106061 29.0323232 86.5757576 28.8515152 86.2242424 28.4893939 85.8722222 28.1272727 85.6964646 27.6777778 85.6964646 27.1393939L85.6964646 7.96060606C85.6964646 7.42272727 85.8772727 6.97272727 86.2393939 6.61060606 86.6010101 6.2489899 87.0510101 6.06717172 87.5893939 6.06717172 88.1060606 6.06717172 88.540404 6.24848485 88.8929293 6.61060606 89.2444444 6.97272727 89.4202031 7.42272727 89.4202031 7.96060606L89.4202031 27.1393939C89.4207071 27.6777778 89.2393939 28.1272727 88.8777778 28.4893939zM119.556061 27.3565657C119.556061 27.8949495 119.379798 28.3343434 119.028788 28.6752525 118.676768 29.0171717 118.273232 29.1878788 117.818687 29.1878788 117.446465 29.1878788 117.109596 29.0737374 116.810101 28.8459596 116.510101 28.6186869 116.277273 28.3085859 116.112121 27.9151515L114.498485 24.159596 105.250505 24.159596 103.636869 27.9459596C103.491919 28.3388889 103.269192 28.6439394 102.969697 28.8616162 102.669697 29.0787879 102.343939 29.1878788 101.991919 29.1878788 101.45404 29.1878788 101.045455 29.0429293 100.766162 28.7535354 100.486869 28.4641414 100.34697 28.070202 100.34697 27.5742424 100.34697 27.3878788 100.378283 27.1914141 100.440404 26.9843434L108.167677 8.42626263C108.332828 8.01262626 108.581313 7.69191919 108.912626 7.46414141 109.243434 7.23686869 109.615657 7.14393939 110.029798 7.18484848 110.402525 7.18484848 110.748485 7.29343434 111.069697 7.51060606 111.390404 7.72777778 111.623232 8.03333333 111.768182 8.42626263L119.402525 26.6121212C119.504545 26.8813131 119.556061 27.1292929 119.556061 27.3565657zM106.770202 20.5914141L112.976768 20.5914141 109.842424 13.329798 106.770202 20.5914141zM124.894444 28.4893939C124.50101 28.8515152 124.04596 29.0323232 123.528788 29.0323232 122.970202 29.0323232 122.509596 28.8515152 122.14798 28.4893939 121.785859 28.1272727 121.605051 27.6777778 121.605051 27.1393939L121.605051 9.2020202C121.605051 8.66464646 121.791414 8.21414141 122.163636 7.8520202 122.535859 7.49040404 123.011616 7.30909091 123.591414 7.30909091 124.108081 7.30909091 124.553535 7.49040404 124.925758 7.8520202 125.298485 8.21414141 125.484343 8.66414141 125.484343 9.2020202L125.484343 27.139899C125.483838 27.6777778 125.286869 28.1272727 124.894444 28.4893939z"/>
    <path fill="#FFF" d="M17.2818182 2.87575758C17.2818182 3.31010101 17.1262626 3.73434343 16.8166667 4.14848485 16.4853535 4.58282828 16.0611111 4.8 15.5439394 4.8 15.1919192 4.8 14.839899 4.70707071 14.4883838 4.52070707 13.4742424 4.04545455 12.3782828 3.80707071 11.1989899 3.80707071 9.75050505 3.80707071 8.48838384 4.11212121 7.41262626 4.72272727 6.33686869 5.33333333 5.50909091 6.19191919 4.92979798 7.2989899 4.35050505 8.40555556 4.06060606 9.67272727 4.06060606 11.1005051 4.06060606 13.5419192 4.71717172 15.3934343 6.03131313 16.6550505 7.34494949 17.9176768 9.06717172 18.5484848 11.1984848 18.5484848 12.460101 18.5484848 13.5565657 18.3106061 14.4878788 17.8343434 14.8606061 17.6691919 15.1914141 17.5863636 15.4813131 17.5863636 16.0186869 17.5863636 16.4742424 17.8141414 16.8464646 18.2691919 17.1570707 18.6626263 17.3121212 19.0868687 17.3121212 19.5419192 17.3121212 19.8732323 17.2292929 20.1732323 17.0636364 20.4419192 16.8979798 20.7106061 16.660101 20.9176768 16.3505051 21.0626263 14.7368687 21.869697 13.0191919 22.2727273 11.1984848 22.2727273 9.17070707 22.2727273 7.30858586 21.8434343 5.61212121 20.9848485 3.91565657 20.1267677 2.56060606 18.8590909 1.5469697 17.1833333.532828283 15.5075758.0262626263 13.480303.0262626263 11.1010101.0262626263 8.99040404.507070707 7.09747475 1.46919192 5.42171717 2.43131313 3.7459596 3.76060606 2.43787879 5.45707071 1.4959596 7.1530303.554545455 9.06717172.0838383838 11.1984848.0838383838 13.039899.0838383838 14.7464646.487373737 16.3186869 1.29393939 16.9606061 1.62474747 17.2818182 2.1520202 17.2818182 2.87575758zM34.5984848 18.1292929C33.8535354 19.4439394 32.8348485 20.4621212 31.5419192 21.1863636 30.2484848 21.9111111 28.8262626 22.2722222 27.2747475 22.2722222 25.7025253 22.2722222 24.2747475 21.9106061 22.9924242 21.1863636 21.7090909 20.4621212 20.6959596 19.4439394 19.9510101 18.1292929 19.2060606 16.8156566 18.8338384 15.3313131 18.8338384 13.6762626 18.8338384 12.0212121 19.2060606 10.5368687 19.9510101 9.22323232 20.6964646 7.90909091 21.7090909 6.88535354 22.9924242 6.1510101 24.2747475 5.41666667 25.7025253 5.0489899 27.2747475 5.0489899 28.8262626 5.0489899 30.2489899 5.41666667 31.5419192 6.1510101 32.8348485 6.88535354 33.8535354 7.90909091 34.5984848 9.22323232 35.3434343 10.5373737 35.7161616 12.0212121 35.7161616 13.6762626 35.7161616 15.3313131 35.3429293 16.8156566 34.5984848 18.1292929zM31.3555556 10.960101C30.9313131 10.1641414 30.3626263 9.5479798 29.6484848 9.11414141 28.9348485 8.67979798 28.1439394 8.46212121 27.2747475 8.46212121 26.4055556 8.46212121 25.6146465 8.67979798 24.9005051 9.11414141 24.1868687 9.5479798 23.6176768 10.1641414 23.1939394 10.960101 22.7691919 11.7570707 22.5575758 12.6621212 22.5575758 13.6757576 22.5575758 14.689899 22.7691919 15.5893939 23.1939394 16.3757576 23.6176768 17.1626263 24.1868687 17.7727273 24.9005051 18.2070707 25.6146465 18.6409091 26.4055556 18.8585859 27.2747475 18.8585859 28.1439394 18.8585859 28.9348485 18.6409091 29.6484848 18.2070707 30.3626263 17.7727273 30.9313131 17.1626263 31.3555556 16.3757576 31.7792929 15.5893939 31.9919192 14.689899 31.9919192 13.6757576 31.9919192 12.6621212 31.7792929 11.7570707 31.3555556 10.960101z" transform="translate(137.374 7.07)"/>
    <path fill="#FFF" d="M198.847475 13.9969697C199.633333 15.2489899 200.026768 16.9813131 200.026768 19.1949495L200.026768 27.1393939C200.026768 27.6772727 199.850505 28.1272727 199.49899 28.4893939 199.14697 28.8515152 198.702525 29.0323232 198.164141 29.0323232 197.625758 29.0323232 197.181818 28.8515152 196.829798 28.4893939 196.477778 28.1272727 196.30202 27.6777778 196.30202 27.1393939L196.30202 19.1949495C196.30202 18.0570707 196.079798 17.1626263 195.634848 16.5106061 195.189899 15.8590909 194.409091 15.5328283 193.291919 15.5328283 192.132828 15.5328283 191.228283 15.879798 190.576263 16.5727273 189.924242 17.2661616 189.598485 18.140404 189.598485 19.1949495L189.598485 27.1393939C189.598485 27.6772727 189.422222 28.1272727 189.070707 28.4893939 188.718687 28.8515152 188.274242 29.0323232 187.736364 29.0323232 187.198485 29.0323232 186.753535 28.8515152 186.401515 28.4893939 186.049495 28.1272727 185.874242 27.6777778 185.874242 27.1393939L185.874242 19.1949495C185.874242 18.0570707 185.651515 17.1626263 185.206566 16.5106061 184.761616 15.8590909 183.981313 15.5328283 182.863636 15.5328283 181.704545 15.5328283 180.8 15.879798 180.14798 16.5727273 179.496465 17.2661616 179.170202 18.140404 179.170202 19.1949495L179.170202 27.1393939C179.170202 27.6772727 178.994444 28.1272727 178.642929 28.4893939 178.290909 28.8515152 177.846465 29.0323232 177.308081 29.0323232 176.769697 29.0323232 176.325253 28.8515152 175.973737 28.4893939 175.621717 28.1272727 175.44596 27.6777778 175.44596 27.1393939L175.44596 14.3222222C175.44596 13.7848485 175.621717 13.3348485 175.973737 12.9722222 176.324747 12.6106061 176.769697 12.4292929 177.308081 12.4292929 177.846465 12.4292929 178.290404 12.6106061 178.642929 12.9722222 178.994444 13.3348485 179.170202 13.7843434 179.170202 14.3222222L179.170202 14.8186869C179.728788 14.0737374 180.437879 13.4378788 181.29596 12.910101 182.154545 12.3828283 183.112121 12.1191919 184.167172 12.1191919 186.773737 12.1191919 188.438889 13.2570707 189.163636 15.5328283 189.639394 14.6636364 190.358586 13.8782828 191.320707 13.1742424 192.282828 12.4712121 193.373737 12.1191919 194.594444 12.1191919 196.643434 12.1191919 198.060606 12.7449495 198.847475 13.9969697zM226.870707 13.9969697C227.656566 15.2489899 228.05 16.9813131 228.05 19.1949495L228.05 27.1393939C228.05 27.6772727 227.873737 28.1272727 227.522222 28.4893939 227.170202 28.8515152 226.725758 29.0323232 226.187374 29.0323232 225.64899 29.0323232 225.205051 28.8515152 224.85303 28.4893939 224.50101 28.1272727 224.325253 27.6777778 224.325253 27.1393939L224.325253 19.1949495C224.325253 18.0570707 224.10303 17.1626263 223.658081 16.5106061 223.213131 15.8590909 222.432323 15.5328283 221.315152 15.5328283 220.156061 15.5328283 219.251515 15.879798 218.599495 16.5727273 217.947475 17.2661616 217.621717 18.140404 217.621717 19.1949495L217.621717 27.1393939C217.621717 27.6772727 217.445455 28.1272727 217.093939 28.4893939 216.741919 28.8515152 216.297475 29.0323232 215.759596 29.0323232 215.221717 29.0323232 214.776768 28.8515152 214.424747 28.4893939 214.072727 28.1272727 213.897475 27.6777778 213.897475 27.1393939L213.897475 19.1949495C213.897475 18.0570707 213.674747 17.1626263 213.229798 16.5106061 212.784848 15.8590909 212.004545 15.5328283 210.886869 15.5328283 209.727778 15.5328283 208.823232 15.879798 208.171212 16.5727273 207.519697 17.2661616 207.193434 18.140404 207.193434 19.1949495L207.193434 27.1393939C207.193434 27.6772727 207.017677 28.1272727 206.666162 28.4893939 206.314141 28.8515152 205.869697 29.0323232 205.331313 29.0323232 204.792929 29.0323232 204.348485 28.8515152 203.99697 28.4893939 203.644949 28.1272727 203.469192 27.6777778 203.469192 27.1393939L203.469192 14.3222222C203.469192 13.7848485 203.644949 13.3348485 203.99697 12.9722222 204.34798 12.6106061 204.792929 12.4292929 205.331313 12.4292929 205.869697 12.4292929 206.313636 12.6106061 206.666162 12.9722222 207.017677 13.3348485 207.193434 13.7843434 207.193434 14.3222222L207.193434 14.8186869C207.75202 14.0737374 208.461111 13.4378788 209.319192 12.910101 210.177778 12.3828283 211.135354 12.1191919 212.190404 12.1191919 214.79697 12.1191919 216.462121 13.2570707 217.186869 15.5328283 217.662626 14.6636364 218.381818 13.8782828 219.343939 13.1742424 220.306061 12.4712121 221.39697 12.1191919 222.617677 12.1191919 224.667172 12.1191919 226.083838 12.7449495 226.870707 13.9969697zM245.118182 12.9727273C245.469697 13.3353535 245.64596 13.7848485 245.64596 14.3227273L245.64596 22.2050505C245.64596 24.439899 245.030303 26.1883838 243.799495 27.45 242.568182 28.7121212 240.815152 29.3429293 238.539394 29.3429293 236.263131 29.3429293 234.515152 28.7121212 233.294949 27.45 232.073737 26.1883838 231.463636 24.439899 231.463636 22.2050505L231.463636 14.3222222C231.463636 13.7848485 231.639394 13.3348485 231.990909 12.9722222 232.342929 12.6106061 232.787374 12.4292929 233.325758 12.4292929 233.863131 12.4292929 234.308081 12.6106061 234.660606 12.9722222 235.011616 13.3348485 235.188384 13.7843434 235.188384 14.3222222L235.188384 22.2045455C235.188384 23.4666667 235.467677 24.4035354 236.025758 25.0136364 236.584343 25.6237374 237.422727 25.9292929 238.539899 25.9292929 239.677778 25.9292929 240.526263 25.6242424 241.084343 25.0136364 241.642929 24.4035354 241.922727 23.4666667 241.922727 22.2045455L241.922727 14.3222222C241.922727 13.7848485 242.098485 13.3348485 242.45 12.9722222 242.801515 12.6106061 243.246465 12.4292929 243.784343 12.4292929 244.321717 12.4292929 244.766162 12.6111111 245.118182 12.9727273zM262.341919 13.9969697C263.14899 15.2489899 263.55202 16.9813131 263.55202 19.1949495L263.55202 27.1393939C263.55202 27.6772727 263.375758 28.1272727 263.024242 28.4893939 262.672727 28.8515152 262.227778 29.0323232 261.689899 29.0323232 261.151515 29.0323232 260.706566 28.8515152 260.355051 28.4893939 260.00303 28.1272727 259.827273 27.6777778 259.827273 27.1393939L259.827273 19.1949495C259.827273 18.0570707 259.589394 17.1626263 259.113636 16.5106061 258.637879 15.8590909 257.820202 15.5328283 256.662121 15.5328283 255.462121 15.5328283 254.520707 15.879798 253.837879 16.5727273 253.155051 17.2661616 252.814141 18.140404 252.814141 19.1949495L252.814141 27.1393939C252.814141 27.6772727 252.637879 28.1272727 252.286364 28.4893939 251.934343 28.8515152 251.489899 29.0323232 250.951515 29.0323232 250.414141 29.0323232 249.969192 28.8515152 249.617172 28.4893939 249.265152 28.1272727 249.089899 27.6777778 249.089899 27.1393939L249.089899 14.3222222C249.089899 13.7848485 249.265657 13.3348485 249.617172 12.9722222 249.968687 12.6106061 250.413636 12.4292929 250.951515 12.4292929 251.489394 12.4292929 251.933838 12.6106061 252.286364 12.9722222 252.637879 13.3348485 252.814141 13.7843434 252.814141 14.3222222L252.814141 14.85C253.372222 14.1050505 254.10202 13.4641414 255.00202 12.9257576 255.901515 12.3878788 256.889899 12.1186869 257.965657 12.1186869 260.076263 12.1191919 261.534848 12.7449495 262.341919 13.9969697zM267.089899 10.0707071C266.8 9.84343434 266.655051 9.43989899 266.655051 8.86060606L266.655051 8.27121212C266.655051 7.69242424 266.811111 7.28888889 267.120707 7.06111111 267.431313 6.83383838 267.927778 6.71969697 268.610101 6.71969697 269.334343 6.71969697 269.841414 6.83383838 270.131313 7.06111111 270.420707 7.28888889 270.565657 7.69242424 270.565657 8.27121212L270.565657 8.86060606C270.565657 9.46060606 270.415152 9.86919192 270.115152 10.0863636 269.815152 10.3040404 269.303535 10.4126263 268.579293 10.4126263 267.876263 10.4121212 267.378788 10.2989899 267.089899 10.0707071zM269.944444 28.4893939C269.592424 28.8515152 269.14798 29.0323232 268.609596 29.0323232 268.072222 29.0323232 267.627273 28.8515152 267.275253 28.4893939 266.923232 28.1272727 266.74798 27.6777778 266.74798 27.1393939L266.74798 14.3222222C266.74798 13.7848485 266.923737 13.3348485 267.275253 12.9722222 267.626768 12.6106061 268.071717 12.4292929 268.609596 12.4292929 269.147475 12.4292929 269.591919 12.6106061 269.944444 12.9722222 270.29596 13.3348485 270.472222 13.7843434 270.472222 14.3222222L270.472222 27.1393939C270.472222 27.6777778 270.296465 28.1272727 269.944444 28.4893939zM282.49798 25.9444444C282.735859 26.2242424 282.855051 26.5914141 282.855051 27.0464646 282.855051 27.6050505 282.549495 28.0757576 281.939394 28.4585859 281.328788 28.8419192 280.640404 29.0328283 279.875758 29.0328283 278.592424 29.0328283 277.511111 28.7590909 276.632323 28.2106061 275.752525 27.6626263 275.313636 26.4984848 275.313636 24.7191919L275.313636 16.1535354 273.886364 16.1535354C273.389394 16.1535354 272.975253 15.9878788 272.644444 15.6570707 272.313636 15.3262626 272.148485 14.9121212 272.148485 14.4156566 272.148485 13.940404 272.313636 13.5419192 272.644444 13.2212121 272.975253 12.9005051 273.389394 12.739899 273.886364 12.739899L275.313636 12.739899 275.313636 10.7535354C275.313636 10.2161616 275.493939 9.76616162 275.856566 9.40353535 276.218182 9.04191919 276.667677 8.86060606 277.206566 8.86060606 277.723232 8.86060606 278.158081 9.04191919 278.509596 9.40353535 278.861616 9.76616162 279.037374 10.2156566 279.037374 10.7535354L279.037374 12.739899 281.240909 12.739899C281.736869 12.739899 282.15101 12.9055556 282.481818 13.2363636 282.812626 13.5671717 282.978788 13.9813131 282.978788 14.4777778 282.978788 14.9535354 282.812626 15.3515152 282.481818 15.6722222 282.15101 15.9934343 281.736869 16.1535354 281.240909 16.1535354L279.037374 16.1535354 279.037374 24.5631313C279.037374 24.9974747 279.15101 25.3131313 279.378788 25.509596 279.606566 25.7070707 279.916667 25.8045455 280.310101 25.8045455 280.475758 25.8045455 280.702525 25.7636364 280.992929 25.680303 281.241414 25.5772727 281.479293 25.5252525 281.707071 25.5252525 281.99596 25.5257576 282.260101 25.6651515 282.49798 25.9444444zM299.426263 12.9727273C299.777778 13.3353535 299.953535 13.7848485 299.953535 14.3227273L299.953535 27.5121212C299.953535 30.2010101 299.229293 32.1616162 297.781313 33.3929293 296.333333 34.6242424 294.39899 35.2393939 291.978283 35.2393939 291.274242 35.2393939 290.555556 35.1823232 289.821212 35.0686869 289.086869 34.9545455 288.491919 34.8050505 288.036869 34.6186869 287.023232 34.1843434 286.516667 33.5838384 286.516667 32.8186869 286.516667 32.6737374 286.547475 32.5085859 286.609596 32.3227273 286.733838 31.8671717 286.94596 31.5207071 287.24596 31.2828283 287.54596 31.0444444 287.871212 30.9257576 288.223737 30.9257576 288.430303 30.9257576 288.627273 30.9570707 288.813636 31.0191919 288.957576 31.0813131 289.211616 31.1843434 289.574242 31.3292929 289.935354 31.4737374 290.319192 31.5929293 290.722222 31.6863636 291.125253 31.779798 291.544444 31.8257576 291.978788 31.8257576 293.447475 31.8257576 294.528283 31.510101 295.221717 30.8792929 295.914646 30.2479798 296.261616 29.1666667 296.261616 27.6363636L296.261616 27.3257576C295.185354 28.6712121 293.510101 29.3429293 291.234343 29.3429293 290.158081 29.3429293 289.206061 29.0893939 288.379293 28.5828283 287.55101 28.0757576 286.910101 27.3727273 286.455051 26.4722222 285.999495 25.5722222 285.772222 24.5434343 285.772222 23.3843434L285.772222 14.3222222C285.772222 13.7848485 285.94798 13.3348485 286.299495 12.9722222 286.65101 12.6106061 287.09596 12.4292929 287.633838 12.4292929 288.171717 12.4292929 288.616162 12.6106061 288.968687 12.9722222 289.320202 13.3348485 289.496465 13.7843434 289.496465 14.3222222L289.496465 22.2666667C289.496465 23.570202 289.780808 24.5065657 290.349495 25.0757576 290.918182 25.6449495 291.75101 25.9287879 292.84798 25.9287879 293.923232 25.9287879 294.756061 25.6136364 295.345455 24.9823232 295.935354 24.3515152 296.230303 23.4459596 296.230303 22.2666667L296.230303 14.3222222C296.230303 13.7848485 296.406061 13.3348485 296.758081 12.9722222 297.109091 12.6106061 297.55404 12.4292929 298.092424 12.4292929 298.630808 12.4292929 299.074242 12.6111111 299.426263 12.9727273z"/>
  </g>
</svg>
