<svg id="Layer_1" data-name="Layer 1" xmlns="http://www.w3.org/2000/svg" viewBox="0 0 1210.89 431.12"><defs><style>.cls-1{fill:#fff;}</style></defs><path class="cls-1" d="M633,1037.85c-4.94,1.32-8.45-.55-9.88-5.49L619,1019.62H583.37l-4.06,12.74c-1.54,4.94-4.94,6.81-9.89,5.49s-6.8-4.94-5.16-10l22.84-69.07c1.87-5.92,6.48-9.33,13.29-9.33H602c6.81,0,11.42,3.41,13.28,9.33l22.84,69.07C639.7,1032.91,637.84,1036.42,633,1037.85Zm-18.44-32.07-13.4-41.18-13.29,41.18Z" transform="translate(-420.11 -779.56)"/><path class="cls-1" d="M716.44,1030.38c0,4.5-2.53,6.92-7.14,6.92H657.14c-5.71,0-8.78-3.19-8.78-8.79V1028a12.73,12.73,0,0,1,3.18-8.9l44.91-55.45-40,.11c-4.5,0-7-2.31-7-6.81s2.53-6.92,7-6.92h50c5.71,0,8.9,3.19,8.9,8.78v.55a12.7,12.7,0,0,1-3.19,8.9l-44.91,55.45,42.06-.11C713.91,1023.57,716.44,1025.88,716.44,1030.38Z" transform="translate(-420.11 -779.56)"/><path class="cls-1" d="M729.93,1007.32V957.14c0-5.27,2.85-8.13,8-8.13s8,2.86,8,8.13v49.3c0,10.76,7.14,17.79,17.68,17.79s17.46-7,17.46-17.79v-49.3c0-5.27,2.85-8.13,8.12-8.13s8,2.86,8,8.13v50.18c0,18.67-13.4,31.08-33.6,31.08S729.93,1026,729.93,1007.32Z" transform="translate(-420.11 -779.56)"/><path class="cls-1" d="M868.38,998.1,881,1027.2c2,4.61.55,8.34-4.17,10.32s-8.23.33-10.32-4.39l-14.06-33.39H831.92v30.42c0,5.27-2.86,8.13-8,8.13s-8-2.86-8-8.13v-73c0-4.61,2.52-7.14,7.13-7.14h34.81c15.6,0,25.92,9.33,25.92,23.5v2.75C883.75,986.9,877.93,994.8,868.38,998.1ZM831.92,986h25c6.37,0,10.76-4.28,10.76-10.65v-1c0-6.37-4.39-10.54-10.76-10.54h-25Z" transform="translate(-420.11 -779.56)"/><path class="cls-1" d="M960.38,1030.38c0,4.5-2.53,6.92-7,6.92h-47c-4.61,0-7.14-2.53-7.14-7.14v-73c0-4.61,2.53-7.14,7.14-7.14h45.9c4.5,0,7,2.42,7,6.92s-2.53,6.92-7,6.92h-37V986h34.8c4.51,0,7,2.41,7,6.81s-2.52,6.91-7,6.91h-34.8v23.72h38.1C957.85,1023.46,960.38,1025.88,960.38,1030.38Z" transform="translate(-420.11 -779.56)"/><path class="cls-1" d="M1061.27,956.92c0,4.5-2.53,6.92-7.14,6.92h-18.45v66.32c0,5.27-2.85,8.13-8,8.13s-8-2.86-8-8.13V963.84h-18.34c-4.61,0-7.14-2.42-7.14-6.92s2.53-6.92,7.14-6.92h52.82C1058.74,950,1061.27,952.42,1061.27,956.92Z" transform="translate(-420.11 -779.56)"/><path class="cls-1" d="M1140.86,957.14v73c0,5.27-2.85,8.13-8.12,8.13s-8-2.86-8-8.13V999.74h-34.15v30.42c0,5.27-2.86,8.13-8,8.13s-8-2.86-8-8.13v-73c0-5.27,2.85-8.13,8-8.13s8,2.86,8,8.13V986h34.15V957.14c0-5.27,2.85-8.13,8-8.13S1140.86,951.87,1140.86,957.14Z" transform="translate(-420.11 -779.56)"/><path class="cls-1" d="M1159.51,1007.32V957.14c0-5.27,2.85-8.13,8-8.13s8,2.86,8,8.13v49.3c0,10.76,7.14,17.79,17.68,17.79s17.46-7,17.46-17.79v-49.3c0-5.27,2.85-8.13,8.12-8.13s8,2.86,8,8.13v50.18c0,18.67-13.4,31.08-33.6,31.08S1159.51,1026,1159.51,1007.32Z" transform="translate(-420.11 -779.56)"/><path class="cls-1" d="M1298,998.1l12.63,29.1c2,4.61.54,8.34-4.18,10.32s-8.23.33-10.32-4.39L1282,999.74H1261.5v30.42c0,5.27-2.85,8.13-8,8.13s-8-2.86-8-8.13v-73c0-4.61,2.52-7.14,7.14-7.14h34.81c15.59,0,25.91,9.33,25.91,23.5v2.75C1313.33,986.9,1307.51,994.8,1298,998.1ZM1261.5,986h25c6.37,0,10.76-4.28,10.76-10.65v-1c0-6.37-4.39-10.54-10.76-10.54h-25Z" transform="translate(-420.11 -779.56)"/><path class="cls-1" d="M1326.93,1024.12c-2-3.51-1-7.9,3.73-10.21,4.5-2.09,7.69.44,9.12,1.87,5.38,6.59,11.85,9.22,19,9.22,11.09,0,18.45-4.94,18.45-12.41V1012c0-20.42-51.61-2.52-51.61-36V974.6c0-15.38,13.18-25.7,33.16-25.7,12.74,0,23.61,4.72,29.54,13.4,2.64,3.4,1,8.34-3.62,10.32s-7.36-.11-8.9-1.87a21.13,21.13,0,0,0-17.35-8.45c-10.54,0-17.46,4.5-17.46,11.09v.55c0,20.75,52.16,2.63,52.16,36v1.42c0,16.15-13.94,27-34.7,27C1345,1038.4,1332.31,1034.33,1326.93,1024.12Z" transform="translate(-420.11 -779.56)"/><path class="cls-1" d="M1408.17,1030.16v-73c0-4.61,2.52-7.14,7.13-7.14h25.92c21.41,0,35.69,13.62,35.69,33.93v19.44c0,20.31-14.28,33.93-35.69,33.93H1415.3C1410.69,1037.3,1408.17,1034.77,1408.17,1030.16Zm32.17-6.7c12.3,0,20.43-8.34,20.43-21V984.81c0-12.63-8.13-21-20.43-21H1424.2v59.62Z" transform="translate(-420.11 -779.56)"/><path class="cls-1" d="M1555.4,1037.85c-4.94,1.32-8.45-.55-9.88-5.49l-4.17-12.74h-35.58l-4.06,12.74c-1.54,4.94-5,6.81-9.89,5.49s-6.81-4.94-5.16-10l22.84-69.07c1.87-5.92,6.48-9.33,13.29-9.33h1.65c6.8,0,11.42,3.41,13.28,9.33l22.84,69.07C1562.1,1032.91,1560.23,1036.42,1555.4,1037.85ZM1537,1005.78l-13.39-41.18-13.29,41.18Z" transform="translate(-420.11 -779.56)"/><path class="cls-1" d="M1629.62,960.87l-25.48,41.73v27.56c0,5.27-2.85,8.13-8,8.13s-8-2.86-8-8.13v-27.34l-25.59-42c-2.63-4.39-1.42-8.23,3-10.54s8.12-1.21,10.65,3.18l20,33.72L1616,953.51c2.53-4.39,6.26-5.6,10.65-3.18S1632.25,956.48,1629.62,960.87Z" transform="translate(-420.11 -779.56)"/><path class="cls-1" d="M896.64,849.1c-10.53-9-21.89-16.78-34.23-22.34a132.29,132.29,0,0,0-38.19-11.56,137.12,137.12,0,0,0-39.12-.13,133.12,133.12,0,0,0-36.82,11l-4.58,2.1-5.27-3.06a128.54,128.54,0,0,0-57.75-17.21,123.41,123.41,0,0,0-29.81,2,121.84,121.84,0,0,0-28.23,8.75,123.92,123.92,0,0,0-46,35.3,128.29,128.29,0,0,0-15.41,24.49A136.8,136.8,0,0,0,552,905.7l-2.11,9.44-10.18,4.28-6,2.53-3,1.24-2.89,1.5-5.78,3-5.5,3.45-2.76,1.72c-.89.62-1.73,1.3-2.61,1.93l-5.23,3.86L501,942.9,498.59,945l-2.27,2.32L491.79,952l-4.13,5-2.07,2.49-1.85,2.66-3.72,5.3L476.77,973l-1.64,2.79-1.4,2.91-2.85,5.8-2.34,6-1.18,3-.91,3.1-1.86,6.17-1.31,6.31-.68,3.15-.39,3.2-.8,6.4c-.15,2.14-.16,4.3-.27,6.44-.35,4.29.15,8.6.22,12.91A115.58,115.58,0,0,0,476,1090.28c16.57,30.11,46.73,53.07,81,59.8,4.28.76,8.54,1.77,12.92,1.93l6.53.61c2.19.16,4.38,0,6.58,0l6.59,0c2.19-.2,4.4-.29,6.58-.6a119.38,119.38,0,0,0,13-2.21A122.76,122.76,0,0,0,657,1127.38l14.19-11,8.95,14.26A127.13,127.13,0,0,0,728,1174.85a130.26,130.26,0,0,0,65,14.94A133.32,133.32,0,0,0,858.74,1170a142.8,142.8,0,0,0,49.34-51.59,134.45,134.45,0,0,1-17,33A141.5,141.5,0,0,1,865.15,1179c-19.75,16.21-44.52,26.67-70.47,30.37a146.9,146.9,0,0,1-78-10.64A151.63,151.63,0,0,1,654,1148.57l23.13,3.29a152.31,152.31,0,0,1-76,35.46c-2.8.51-5.63.79-8.45,1.16l-8.52.5c-2.85.12-5.7.41-8.55.35l-8.56-.36c-5.74-.06-11.38-1.12-17.05-2a152.91,152.91,0,0,1-63.19-26.09,160.24,160.24,0,0,1-46.18-50.8,156.22,156.22,0,0,1-20.1-65.84c-.24-5.77-.75-11.54-.3-17.32.14-2.89.21-5.79.45-8.67l1.1-8.61.59-4.3.91-4.25,1.85-8.49,2.53-8.3,1.28-4.15,1.59-4c16.2-43.49,53-78.12,96.61-92.65l-12.28,13.72a166.66,166.66,0,0,1,13.35-35.32A164.63,164.63,0,0,1,549.68,831a153.08,153.08,0,0,1,61-41.87c11.54-4.55,23.76-7.08,35.93-8.54l9.16-.85c3.07-.1,6.12-.27,9.18-.19a137.87,137.87,0,0,1,18.29,1.27,147.4,147.4,0,0,1,66.84,26.37l-9.85-1a145.68,145.68,0,0,1,86.54-3,141.72,141.72,0,0,1,38.88,17.7A135.81,135.81,0,0,1,896.64,849.1Z" transform="translate(-420.11 -779.56)"/></svg>