<?xml version="1.0" encoding="utf-8"?>
<!-- Generator: Adobe Illustrator 26.3.1, SVG Export Plug-In . SVG Version: 6.00 Build 0)  -->
<svg version="1.1" id="Calque_1" xmlns="http://www.w3.org/2000/svg" xmlns:xlink="http://www.w3.org/1999/xlink" x="0px" y="0px"
	 viewBox="0 0 990 125.9" style="enable-background:new 0 0 990 125.9;" xml:space="preserve">
<style type="text/css">
	.st0{fill:#EF7D00;}
	.st1{fill:#FFFFFF;}
	.st2{fill:#D5121E;}
</style>
<path class="st0" d="M538.3,102.5c-0.8,0.5-1.8,1.2-2.7,1.7l-0.3,0.2h0.3c17.7,4.8,35.2,4.7,38.5-6.4c4.3-14.2-23.8-29.5-37-36.8
	c-2.8-1.6-4.1-0.6-2.3,1.5C543.2,72.3,555.2,91.3,538.3,102.5"/>
<path class="st1" d="M690.7,40.1h-14.9V27.6h14.9V9.1h14.4v18.5h23.7v12.5h-23.7v37.5c0,9.4,2.6,14.3,14.6,14.3
	c3.3-0.1,6.6-0.5,9.8-1.3v13c-4.7,0.7-9.5,1.1-14.3,1.1c-22.7,0-24.5-16.4-24.5-25.4L690.7,40.1"/>
<rect x="882.4" y="27.5" class="st1" width="14.8" height="77.3"/>
<path class="st1" d="M923.3,65.6c0,21.1,17.3,26.3,25.6,26.3c15.7,0,26.8-8.9,26.8-26.6s-12.6-25.9-26.9-25.9
	C940.6,39.5,923.3,44.2,923.3,65.6 M908.3,65.5c0-29.1,23.5-39,39.8-39c18.6,0,27.5,10.6,27.5,10.6l0.8-9.6H990v77.6h-13.6
	l-0.7-10.2c0,0-9.2,10.2-27.7,10.2S908.3,94.3,908.3,65.5L908.3,65.5z"/>
<path class="st1" d="M899.5,9.7c0-5.3-4.3-9.7-9.7-9.7c-5.3,0-9.7,4.3-9.7,9.7s4.3,9.7,9.7,9.7c0,0,0,0,0,0
	C895.2,19.3,899.5,15,899.5,9.7"/>
<path class="st1" d="M871.6,40.8V27.7c-14.6-1.3-24.8,2.2-32.8,10.5L838,27.6h-14V105h14.8V64.9C838.8,53.7,847.8,39.5,871.6,40.8"
	/>
<path class="st1" d="M732.4,65.8c0-24.2,17.9-39.7,41.8-39.7c23.7,0,40,17.3,40,38.4c0,0,0,3.3-0.3,6.3L747.8,71
	c0.6,12,14.4,21,28.7,21c9,0,17.8-3.4,24.4-9.5l10.6,9.3c-10.7,10.3-22.4,13.4-35,13.4c-26.1,0-44-15.2-44-38.8V65.8 M798,59.2
	c0-10.5-10.6-19.3-23.6-19.3c-13.9,0-25.4,8.6-26.4,19.3H798z"/>
<path class="st1" d="M644.1,58.8c-14.9-2.7-29.5-4.5-29.5-11.5c0-4.5,4.5-8.5,17.5-8.5c9.7,0,20.8,2.2,23.9,9.1l13.7-5.8
	c-5.2-10.5-20.8-15.6-38.6-15.6c-15.6,0-32.3,5.9-32.3,21.7c0,13.7,12.5,17.9,33,21.8c13.7,2.6,26.4,3.9,26.4,11.3
	c0,4.7-6.2,10.7-21.8,10.7c-11.1,0-22.2-2.3-25.6-10.2l-13.3,5.6c5.5,12.2,19.9,18.5,36.7,18.5c33.5,0,40-15.9,40-25
	C674.1,65.8,659.1,61.5,644.1,58.8"/>
<path class="st1" d="M218.1,39.5c-14.3,0-26.9,8.1-26.9,25.9S202.2,92,217.9,92c8.2,0,25.6-3.3,25.6-26.3S226.2,39.5,218.1,39.5
	 M218.8,105c-18.5,0-27.7-11.8-27.7-11.8v32.6h-14.3V27.5h13.5l0.8,9.6c0,0,9-10.6,27.5-10.6c16.3,0,39.8,8.3,39.8,39
	S237.4,105.1,218.8,105L218.8,105z"/>
<path class="st1" d="M329.2,65.6c0,21.1,17.4,26.3,25.6,26.3c15.7,0,26.8-8.9,26.8-26.6s-12.6-25.9-26.9-25.9
	C346.5,39.5,329.2,44.2,329.2,65.6 M314.2,65.5c0-29.1,23.5-39,39.9-39c18.5,0,27.5,10.7,27.5,10.7l0.8-9.6h13.5v77.5h-13.5
	l-0.8-10.3c0,0-9.2,10.3-27.7,10.3S314.1,94.3,314.2,65.5L314.2,65.5z"/>
<path class="st1" d="M315.2,40.8V27.7c-14.6-1.3-24.9,2.2-32.8,10.5l-0.8-10.7h-14V105h14.8V64.9C282.4,53.7,291.4,39.5,315.2,40.8"
	/>
<path class="st1" d="M46.7,58.8c-14.9-2.7-29.5-4.5-29.5-11.5c0-4.5,4.5-8.5,17.5-8.5c9.7,0,20.8,2.2,23.9,9.1l13.7-5.8
	c-5.2-10.5-20.8-15.6-38.6-15.6c-15.6,0-32.3,5.9-32.3,21.7c0,13.7,12.4,17.9,33,21.8c13.7,2.6,26.4,3.9,26.4,11.3
	C60.7,86,54.5,92,38.9,92c-11.1,0-22.2-2.3-25.6-10.2L0,87.4c5.4,12.2,19.9,18.5,36.7,18.5c33.5,0,40-15.9,40-25
	C76.7,65.8,61.7,61.5,46.7,58.8"/>
<path class="st1" d="M125.8,26.5c-19.8,0-43.2,9.9-43.2,39c0,28.8,21.1,40,43.2,40s43.2-11.2,43.2-40
	C169,36.4,145.5,26.5,125.8,26.5 M125.8,92c-12.2,0-28.2-5.2-28.2-26.3c0-21.4,17.8-25.7,28.2-25.7s28.2,4.3,28.2,25.7
	C153.9,86.7,137.9,91.9,125.8,92L125.8,92z"/>
<path class="st2" d="M535.3,104.3c0,0-22.2,14-61.5,14c-15.2,0-28-2.3-33.4-7.7c-5.7-5.6-8.8-15.1-8.8-23.8c0-7.4,3.1-13.7,9.5-13.7
	C457.7,73.2,509.3,99.4,535.3,104.3"/>
<path class="st0" d="M461.2,23.2c0.8-0.5,1.8-1.2,2.7-1.7l0.3-0.2h-0.3c-17.7-4.9-35.2-4.7-38.5,6.4c-4.4,14.2,23.8,29.5,37,36.8
	c2.8,1.6,4.1,0.6,2.2-1.5C456.2,53.4,444.3,34.4,461.2,23.2"/>
<path class="st2" d="M464.1,21.4c0,0,22.2-14,61.5-14c15.2,0,28,2.3,33.4,7.7c5.7,5.6,8.8,15.1,8.8,23.8c0,7.4-3.1,13.7-9.5,13.7
	C541.8,52.5,490.2,26.3,464.1,21.4"/>
</svg>
